<?xml version="1.0" encoding="utf-8"?>
<!-- Generator: Adobe Illustrator 27.8.1, SVG Export Plug-In . SVG Version: 6.00 Build 0)  -->
<svg version="1.1" id="Layer_1" xmlns="http://www.w3.org/2000/svg" xmlns:xlink="http://www.w3.org/1999/xlink" x="0px" y="0px"
	 viewBox="0 0 299.5 112.5" style="enable-background:new 0 0 299.5 112.5;" xml:space="preserve">
<style type="text/css">
	.st0{fill:#142854;}
	.st1{fill:#92D050;}
	.st2{fill:url(#SVGID_1_);}
</style>
<g>
	<g>
		<path class="st0" d="M130.42,104.9h1.49c0,2.82,1.18,5.22,5.75,5.22c4.68,0,5.92-1.95,5.92-3.97c0-1.3-0.56-2.09-1.61-2.54
			c-1.04-0.45-3.19-0.73-4.82-0.96c-1.75-0.2-3.97-0.65-5.02-1.27c-1.04-0.65-1.78-1.83-1.78-3.52c0-3.19,2.82-5.47,7.19-5.47
			c5.19,0,6.96,2.42,6.96,6.74h-1.49c0-3.55-1.58-5.36-5.44-5.36c-3.41,0-5.64,1.64-5.64,3.97c0,1.3,0.51,2.09,1.35,2.56
			c0.93,0.51,3.27,0.85,4.82,1.07c1.8,0.25,3.83,0.56,5.05,1.18c1.24,0.59,2,1.83,2,3.5c0,2.73-1.64,5.44-7.5,5.44
			C131.75,111.5,130.42,108.2,130.42,104.9z"/>
		<path class="st0" d="M148.27,101.86c0-5.89,4.12-9.47,9.22-9.47c5.1,0,9.25,3.58,9.25,9.47c0,6-4.14,9.64-9.25,9.64
			C152.38,111.5,148.27,107.86,148.27,101.86z M165.12,101.86c0-4.99-3.5-8.01-7.64-8.01c-4.14,0-7.64,3.02-7.64,8.01
			c0,5.1,3.5,8.17,7.64,8.17C161.63,110.03,165.12,106.96,165.12,101.86z"/>
		<path class="st0" d="M170.45,92.66h1.58v17.08h10.23v1.47h-11.81V92.66z"/>
		<path class="st0" d="M184.74,104.59V92.66h1.58v11.92c0,3.35,2.28,5.44,6.06,5.44c3.75,0,6.03-2.09,6.03-5.44V92.66h1.44v11.92
			c0,4.17-2.85,6.91-7.53,6.91C187.61,111.5,184.74,108.76,184.74,104.59z"/>
		<path class="st0" d="M209.06,94.1h-6.37v-1.44h14.38v1.44h-6.4v17.11h-1.61V94.1z"/>
		<path class="st0" d="M220.11,92.66h1.61v18.55h-1.61V92.66z"/>
		<path class="st0" d="M225.58,101.86c0-5.89,4.12-9.47,9.22-9.47c5.1,0,9.25,3.58,9.25,9.47c0,6-4.14,9.64-9.25,9.64
			C229.69,111.5,225.58,107.86,225.58,101.86z M242.44,101.86c0-4.99-3.5-8.01-7.64-8.01c-4.14,0-7.64,3.02-7.64,8.01
			c0,5.1,3.5,8.17,7.64,8.17C238.94,110.03,242.44,106.96,242.44,101.86z"/>
		<path class="st0" d="M247.76,92.66h2.56l11.36,16.41h0.06V92.66h1.52v18.55h-1.89l-12.06-17.39h-0.03v17.39h-1.52V92.66z"/>
		<path class="st0" d="M267.07,104.9h1.49c0,2.82,1.18,5.22,5.75,5.22c4.68,0,5.92-1.95,5.92-3.97c0-1.3-0.56-2.09-1.61-2.54
			c-1.04-0.45-3.19-0.73-4.82-0.96c-1.75-0.2-3.97-0.65-5.02-1.27c-1.04-0.65-1.78-1.83-1.78-3.52c0-3.19,2.82-5.47,7.19-5.47
			c5.19,0,6.96,2.42,6.96,6.74h-1.49c0-3.55-1.58-5.36-5.44-5.36c-3.41,0-5.64,1.64-5.64,3.97c0,1.3,0.51,2.09,1.35,2.56
			c0.93,0.51,3.27,0.85,4.82,1.07c1.8,0.25,3.83,0.56,5.05,1.18c1.24,0.59,2,1.83,2,3.5c0,2.73-1.64,5.44-7.5,5.44
			C268.39,111.5,267.07,108.2,267.07,104.9z"/>
	</g>
	<g>
		<path class="st0" d="M164.17,66.8V40.28h7.7v26.39c0,6.47,4.46,10.15,11.38,10.15c6.98,0,11.38-3.69,11.38-10.15V40.28h6.92V66.8
			c0,10.22-7.18,16.68-18.63,16.68C171.42,83.48,164.17,77.01,164.17,66.8z"/>
		<path class="st0" d="M209.57,40.28h17.98c9.96,0,15.13,4.27,15.13,11.12c0,4.85-2.33,8.28-6.85,9.12v0.07
			c5.3,0.78,8.47,4.4,8.47,9.89c0,7.63-4.72,12.35-15.26,12.35h-19.47V40.28z M228.26,58.52c5.04,0,7.5-2.2,7.5-5.95
			c0-3.82-2.46-6.21-8.28-6.21h-10.15v12.16H228.26z M228.9,76.76c5.82,0,8.02-2.72,8.02-7.05c0-3.69-2.97-6.14-8.28-6.14h-11.32
			v13.19H228.9z"/>
		<path class="st0" d="M251.4,40.28h7.7v42.55h-7.7V40.28z"/>
		<path class="st0" d="M278.05,46.68h-13.19v-6.4H299v6.4h-13.19v36.15h-7.76V46.68z"/>
		<path class="st0" d="M157.58,61.4c0-12.2-9.89-22.08-22.08-22.08s-22.08,9.89-22.08,22.08c0,12.2,9.89,22.08,22.08,22.08h22.08
			V77.5h-7.01C154.87,73.47,157.58,67.76,157.58,61.4z M135.49,76.47c-8.33,0-15.07-6.75-15.07-15.07s6.75-15.07,15.07-15.07
			s15.07,6.75,15.07,15.07S143.82,76.47,135.49,76.47z"/>
	</g>
</g>
<g>
	<path class="st1" d="M84.17,26.11c6.75,0,12.23-5.47,12.23-12.23S90.92,1.66,84.17,1.66c-6.75,0-12.23,5.47-12.23,12.23
		S77.42,26.11,84.17,26.11z"/>
	<linearGradient id="SVGID_1_" gradientUnits="userSpaceOnUse" x1="47.4048" y1="111.5557" x2="47.4048" y2="20.7882">
		<stop  offset="0.1948" style="stop-color:#142854"/>
		<stop  offset="0.294" style="stop-color:#1D3454"/>
		<stop  offset="0.4747" style="stop-color:#365553"/>
		<stop  offset="0.7164" style="stop-color:#5D8A52"/>
		<stop  offset="1" style="stop-color:#92D050"/>
	</linearGradient>
	<path class="st2" d="M79.62,56.12c-0.07-0.82-0.15-1.65-0.27-2.46c-0.08-0.5-0.19-0.98-0.29-1.46c-0.15-0.77-0.3-1.55-0.49-2.31
		c-0.14-0.55-0.32-1.09-0.49-1.63c-0.2-0.66-0.4-1.33-0.64-1.98c-0.22-0.6-0.48-1.18-0.73-1.77c-0.24-0.56-0.47-1.13-0.73-1.68
		c-0.3-0.62-0.63-1.21-0.96-1.81c-0.27-0.5-0.53-1-0.83-1.49c-0.36-0.59-0.75-1.16-1.14-1.73c-0.32-0.46-0.62-0.93-0.96-1.38
		c-0.4-0.54-0.83-1.05-1.26-1.56c-0.37-0.45-0.74-0.91-1.13-1.34c-0.42-0.47-0.88-0.91-1.32-1.35c-0.44-0.44-0.88-0.89-1.34-1.31
		c-0.44-0.4-0.9-0.76-1.35-1.14c-0.51-0.42-1.02-0.85-1.55-1.25c-0.45-0.34-0.92-0.64-1.39-0.96c-0.57-0.39-1.13-0.78-1.72-1.13
		c-0.49-0.3-0.99-0.56-1.5-0.83c-0.59-0.32-1.18-0.66-1.8-0.95c-0.56-0.27-1.13-0.5-1.7-0.74c-0.58-0.25-1.16-0.5-1.76-0.72
		c-0.65-0.24-1.33-0.44-2-0.64c-0.54-0.16-1.07-0.34-1.62-0.49c-0.76-0.2-1.54-0.34-2.32-0.5c-0.48-0.09-0.96-0.21-1.45-0.28
		c-0.82-0.13-1.65-0.2-2.48-0.27c-0.41-0.04-0.81-0.11-1.22-0.13c-0.09-0.01-0.17,0-0.26,0c-0.7-0.04-1.41-0.02-2.12-0.02
		c-0.65,0-1.3-0.02-1.94,0.02c-0.1,0.01-0.19,0-0.29,0c-0.58,0.03-1.14,0.12-1.71,0.18c-0.6,0.06-1.21,0.1-1.81,0.19
		c-0.57,0.09-1.13,0.22-1.69,0.33c-3.01,0.59-5.9,1.5-8.63,2.74c-0.01,0-0.02,0.01-0.03,0.01c-0.98,0.45-1.93,0.95-2.87,1.48
		c-0.09,0.05-0.18,0.09-0.27,0.14c-0.95,0.54-1.86,1.13-2.75,1.75c-0.06,0.04-0.12,0.08-0.18,0.12c-0.91,0.64-1.79,1.32-2.64,2.03
		c-0.03,0.03-0.06,0.05-0.09,0.08c-0.86,0.72-1.68,1.48-2.47,2.27c-0.01,0.01-0.03,0.03-0.04,0.04l0,0
		c-6.5,6.5-10.77,15.28-11.36,25.18C0.8,78.81,17.16,97.23,38.61,98.5c5.48,0.32,11-0.51,16.13-2.46c0.64-0.24,1.25-0.55,1.87-0.82
		c0,0,0.19-0.06,0.55-0.24c0.39-0.19,1.19-0.48,1.19-0.48c1.09-0.45,2.77-0.86,4.3-0.77c1.94,0.11,3.68,0.84,5.09,1.94
		c1.4,1.25,2.45,2.99,2.97,4.85c0.02,0.07,0.07,0.23,0.09,0.34c0.02,0.09,0.05,0.19,0.07,0.28c0.02,0.07,0.03,0.14,0.05,0.21
		c0.03,0.13,0.05,0.26,0.07,0.4c0.01,0.03,0.01,0.06,0.02,0.09c0.05,0.27,0.12,0.63,0.25,1.08c0,0.01,0.01,0,0.01,0.01
		c0.01,0.04,0.02,0.09,0.03,0.13c0.06,0.2,0.12,0.4,0.18,0.6c0.02,0.06,0.03,0.13,0.06,0.2c0.17,0.53,0.38,1.03,0.63,1.52
		c0.06,0.11,0.11,0.23,0.17,0.34c0.24,0.44,0.5,0.85,0.79,1.25c0.11,0.15,0.23,0.3,0.34,0.45c0.01,0.01,0.02,0.03,0.04,0.04
		c0.25,0.33,0.52,0.65,0.81,0.94c0.17,0.18,0.35,0.34,0.54,0.5c0.28,0.25,0.55,0.49,0.85,0.7c0.25,0.18,0.53,0.34,0.8,0.5
		c0.27,0.16,0.54,0.33,0.82,0.46c0.36,0.17,0.75,0.3,1.13,0.42c0.24,0.08,0.46,0.18,0.7,0.24c0.64,0.16,1.3,0.28,1.98,0.32
		c0.01,0,0.01,0,0.02,0c2.17,0.13,4.23-0.41,5.97-1.44c0.03-0.02,0.05-0.04,0.08-0.06c1.13-0.64,2.1-1.5,2.91-2.51
		c0.43-0.49,0.84-0.99,1.17-1.56c0.02-0.03,0.04-0.05,0.06-0.08c1.03-1.74,1.57-3.8,1.44-5.97c0-0.01,0-0.01,0-0.02
		c-0.04-0.68-0.15-1.35-0.32-1.98c-0.06-0.24-0.16-0.47-0.24-0.7c-0.13-0.38-0.25-0.77-0.42-1.13c-0.14-0.29-0.3-0.55-0.46-0.83
		c-0.16-0.27-0.31-0.54-0.5-0.8c-0.22-0.3-0.46-0.58-0.7-0.85c-0.16-0.18-0.32-0.37-0.5-0.54c-0.3-0.29-0.61-0.55-0.94-0.81
		c-0.01-0.01-0.03-0.02-0.04-0.04c-0.15-0.12-0.29-0.23-0.45-0.34c-0.4-0.29-0.81-0.56-1.25-0.79c-0.11-0.06-0.23-0.11-0.34-0.17
		c-0.49-0.25-0.99-0.46-1.52-0.63c-0.06-0.02-0.13-0.04-0.2-0.06c-0.2-0.06-0.4-0.12-0.6-0.18c-0.04-0.01-0.09-0.02-0.13-0.03
		c-0.01,0,0-0.01-0.01-0.01c-0.45-0.13-0.81-0.21-1.08-0.25c-0.03-0.01-0.06-0.01-0.09-0.02c-0.13-0.02-0.27-0.04-0.4-0.07
		c-0.07-0.01-0.14-0.03-0.21-0.05c-0.09-0.02-0.19-0.05-0.28-0.07c-0.11-0.03-0.26-0.07-0.34-0.09c-1.85-0.52-3.6-1.57-4.85-2.97
		c-1.11-1.42-1.83-3.15-1.95-5.09c-0.09-1.53,0.32-3.21,0.77-4.3c0,0,0.11-0.31,0.24-0.63c0.23-0.46,0.46-0.92,0.67-1.41
		c0.13-0.31,0.23-0.63,0.36-0.94c0.09-0.21,0.19-0.41,0.28-0.63c0.08-0.21,0.13-0.43,0.21-0.65c0.29-0.8,0.54-1.6,0.77-2.41
		c0.12-0.43,0.25-0.85,0.36-1.28c0.24-0.96,0.43-1.93,0.6-2.9c0.05-0.27,0.11-0.54,0.15-0.81c0.17-1.15,0.3-2.31,0.37-3.47
		c0-0.09,0-0.17,0-0.26c0.03-0.55,0.01-1.09,0.01-1.64c0.01-0.82,0.03-1.64-0.02-2.46c0-0.08,0-0.17,0-0.25
		C79.73,56.94,79.65,56.53,79.62,56.12z M39.23,87.98c-15.64-0.93-27.57-14.36-26.65-30c0.43-7.24,3.56-13.66,8.32-18.4
		c0.57-0.57,1.17-1.12,1.8-1.65c0.03-0.02,0.06-0.04,0.08-0.07c0.62-0.51,1.25-1,1.91-1.47c0.05-0.04,0.11-0.07,0.16-0.1
		c0.64-0.44,1.3-0.87,1.98-1.26c0.08-0.04,0.16-0.08,0.23-0.12c0.67-0.38,1.35-0.74,2.05-1.06c0.03-0.01,0.07-0.03,0.1-0.04
		c1.49-0.68,3.05-1.23,4.66-1.65c0.04-0.01,0.07-0.02,0.11-0.03c0.46-0.12,0.94-0.19,1.41-0.29c0.42-0.08,0.84-0.18,1.27-0.25
		c0.43-0.06,0.87-0.09,1.3-0.14c0.49-0.05,0.98-0.11,1.47-0.14c0.47-0.02,0.94-0.01,1.4-0.01c0.52,0,1.03-0.01,1.56,0.01
		c0.36,0.02,0.71,0.07,1.07,0.1c0.61,0.05,1.22,0.11,1.81,0.2c0.36,0.06,0.7,0.14,1.05,0.21c0.57,0.11,1.14,0.22,1.7,0.36
		c0.4,0.1,0.78,0.23,1.17,0.35c0.49,0.15,0.98,0.29,1.46,0.47c0.44,0.16,0.86,0.35,1.28,0.53c0.41,0.18,0.83,0.34,1.24,0.54
		c0.45,0.22,0.88,0.46,1.31,0.69c0.36,0.2,0.73,0.39,1.09,0.61c0.43,0.26,0.84,0.55,1.26,0.83c0.34,0.23,0.68,0.45,1.01,0.7
		c0.39,0.29,0.76,0.6,1.14,0.92c0.33,0.27,0.66,0.54,0.98,0.83c0.34,0.31,0.66,0.64,0.98,0.96c0.32,0.32,0.65,0.64,0.96,0.98
		c0.29,0.32,0.56,0.65,0.83,0.98c0.31,0.37,0.62,0.75,0.92,1.14c0.24,0.33,0.47,0.67,0.7,1.01c0.28,0.42,0.57,0.83,0.83,1.26
		c0.21,0.35,0.41,0.72,0.61,1.09c0.24,0.43,0.48,0.87,0.69,1.31c0.19,0.4,0.36,0.82,0.54,1.24c0.18,0.42,0.37,0.85,0.53,1.28
		c0.17,0.48,0.32,0.97,0.47,1.46c0.12,0.39,0.25,0.78,0.35,1.18c0.14,0.55,0.25,1.12,0.36,1.69c0.07,0.35,0.15,0.7,0.21,1.06
		c0.09,0.59,0.14,1.2,0.2,1.8c0.03,0.36,0.08,0.71,0.1,1.07c0.04,0.71,0.02,1.41,0.01,2.1c-0.01,0.32,0.01,0.64-0.01,0.96
		c-0.04,0.81-0.14,1.6-0.25,2.39c-0.03,0.19-0.03,0.38-0.06,0.57c-0.97,5.99-3.83,11.38-7.97,15.53l0,0
		C55.42,85.23,47.66,88.48,39.23,87.98z"/>
</g>
</svg>
